<svg version="1.1" xmlns="http://www.w3.org/2000/svg" style="display: block;" viewBox="0 0 1024 1024" width="256" height="256" preserveAspectRatio="none">
<path transform="translate(0,0)" fill="rgb(111,67,40)" d="M 600.629 344.68 C 601.821 349.779 601.314 377.358 601.311 384.47 C 614.325 384.165 627.287 383.77 640.304 383.987 C 640.153 393.707 639.062 468.61 641.727 472.375 C 655.302 471.614 670.581 471.827 684.322 471.764 C 684.314 477.602 684.639 501.019 684.012 505.573 L 685.016 510.572 C 688.281 513.188 720.949 511.746 727.839 511.623 C 727.982 498.278 728.197 485.215 727.711 471.872 C 746.716 472.725 768.012 471.285 787.193 471.724 C 793.516 471.869 806.504 471.172 812.187 472.421 C 812.27 485.18 812.11 499.154 812.784 511.778 C 827.179 511.883 841.085 512.017 855.471 511.465 C 855.84 499.061 856.485 484.197 855.705 471.893 C 869.194 471.955 882.683 471.914 896.171 471.77 C 895.974 485.114 896.11 498.461 896.58 511.798 C 910.966 511.825 926.015 512.076 940.345 511.773 L 940.29 593.536 C 940.292 607.751 939.793 626.4 940.597 640.329 C 928.282 639.707 908.918 639.609 896.576 640.433 C 895.808 662.316 895.215 706.374 896.419 728.253 C 885.292 727.833 867.464 727.602 856.319 728.427 C 856.238 740.29 855.684 756.807 856.399 768.293 C 844.376 767.861 823.444 767.459 811.684 768.587 C 811.58 755.258 811.608 741.929 811.769 728.601 C 798.584 727.716 781.352 727.533 768.14 728.486 C 768.332 797.952 766.843 872.244 768.621 941.255 C 756.68 940.179 740.94 940.601 728.604 940.64 C 728.248 955.443 728.228 970.253 728.546 985.057 C 713.572 983.459 686.955 984.181 671.173 984.184 L 570.42 984.203 L 452.505 984.174 C 431.94 984.174 403.604 983.349 383.882 985.115 L 383.923 940.915 C 370.582 940.163 357.208 940.233 343.876 941.126 C 343.797 870.645 343.059 798.509 344.128 728.156 C 316.28 728.965 283.124 726.715 255.855 729.14 C 255.691 714.264 255.852 699.385 256.336 684.516 C 256.883 679.249 256.306 665.634 256.34 659.8 C 256.453 639.964 255.678 619.876 256.266 600.035 C 285.527 600.059 314.787 599.916 344.046 599.605 C 343.458 586.665 343.869 570.553 343.847 557.375 L 344.382 555.751 C 357.482 556.158 370.963 555.936 384.099 555.882 C 394.538 557.159 416.285 556.431 427.558 556.295 C 442.37 556.178 457.183 556.14 471.995 556.181 L 471.971 512.032 C 471.388 484.914 471.921 454.949 472.154 427.651 L 598.974 427.655 C 601.467 423.964 598.687 356.451 600.629 344.68 z"/>
<path transform="translate(0,0)" fill="rgb(14,122,10)" d="M 727.711 471.872 C 746.716 472.725 768.012 471.285 787.193 471.724 C 793.516 471.869 806.504 471.172 812.187 472.421 C 812.27 485.18 812.11 499.154 812.784 511.778 C 827.179 511.883 841.085 512.017 855.471 511.465 C 855.84 499.061 856.485 484.197 855.705 471.893 C 869.194 471.955 882.683 471.914 896.171 471.77 C 895.974 485.114 896.11 498.461 896.58 511.798 C 910.966 511.825 926.015 512.076 940.345 511.773 L 940.29 593.536 C 940.292 607.751 939.793 626.4 940.597 640.329 C 928.282 639.707 908.918 639.609 896.576 640.433 C 895.808 662.316 895.215 706.374 896.419 728.253 C 885.292 727.833 867.464 727.602 856.319 728.427 C 856.238 740.29 855.684 756.807 856.399 768.293 C 844.376 767.861 823.444 767.459 811.684 768.587 C 811.58 755.258 811.608 741.929 811.769 728.601 C 798.584 727.716 781.352 727.533 768.14 728.486 C 766.965 719.55 767.482 694.636 767.684 684.917 C 754.76 683.886 741.232 685.216 728.154 683.917 C 727.681 656.234 727.955 627.814 727.923 600.074 C 727.784 586.011 727.318 570.166 727.915 556.274 C 720.067 555.316 692.869 556.228 683.613 556.357 C 685.284 545.648 683.498 517.919 684.012 505.573 L 685.016 510.572 C 688.281 513.188 720.949 511.746 727.839 511.623 C 727.982 498.278 728.197 485.215 727.711 471.872 z"/>
<path transform="translate(0,0)" fill="rgb(13,89,8)" d="M 727.711 471.872 C 746.716 472.725 768.012 471.285 787.193 471.724 C 793.516 471.869 806.504 471.172 812.187 472.421 C 802.201 473.621 779.097 473.091 768.095 473.185 L 767.725 511.266 C 756.888 512.086 739.319 512.391 728.303 511.984 C 727.883 526.743 727.754 541.51 727.915 556.274 C 720.067 555.316 692.869 556.228 683.613 556.357 C 685.284 545.648 683.498 517.919 684.012 505.573 L 685.016 510.572 C 688.281 513.188 720.949 511.746 727.839 511.623 C 727.982 498.278 728.197 485.215 727.711 471.872 z"/>
<path transform="translate(0,0)" fill="rgb(141,218,82)" d="M 767.967 512.014 L 812.12 512.059 L 812.057 555.969 L 855.995 555.943 L 855.952 512.041 L 896.128 511.979 C 896.051 554.271 896.574 597.845 895.969 640.038 L 856.085 640.019 C 855.483 668.961 856.352 698.664 855.82 727.924 L 812.058 727.976 C 811.955 713.278 811.994 698.578 812.174 683.88 C 797.47 683.895 782.767 684.033 768.066 684.294 L 768.081 600.201 L 767.967 512.014 z"/>
<path transform="translate(0,0)" fill="rgb(63,165,61)" d="M 768.081 600.201 L 812.071 599.932 L 811.923 640.018 L 856.085 640.019 C 855.483 668.961 856.352 698.664 855.82 727.924 L 812.058 727.976 C 811.955 713.278 811.994 698.578 812.174 683.88 C 797.47 683.895 782.767 684.033 768.066 684.294 L 768.081 600.201 z"/>
<path transform="translate(0,0)" fill="rgb(14,122,10)" d="M 600.629 344.68 C 601.821 349.779 601.314 377.358 601.311 384.47 C 614.325 384.165 627.287 383.77 640.304 383.987 C 640.153 393.707 639.062 468.61 641.727 472.375 C 655.302 471.614 670.581 471.827 684.322 471.764 C 684.314 477.602 684.639 501.019 684.012 505.573 C 683.498 517.919 685.284 545.648 683.613 556.357 C 669.036 556.618 654.611 557.002 640.037 556.501 C 626.716 556.442 613.396 556.292 600.078 556.05 C 557.691 556.592 514.439 556.177 471.995 556.181 L 471.971 512.032 C 471.388 484.914 471.921 454.949 472.154 427.651 L 598.974 427.655 C 601.467 423.964 598.687 356.451 600.629 344.68 z"/>
<path transform="translate(0,0)" fill="rgb(13,89,8)" d="M 600.629 344.68 C 601.821 349.779 601.314 377.358 601.311 384.47 C 614.325 384.165 627.287 383.77 640.304 383.987 C 640.153 393.707 639.062 468.61 641.727 472.375 C 655.302 471.614 670.581 471.827 684.322 471.764 C 684.314 477.602 684.639 501.019 684.012 505.573 C 683.498 517.919 685.284 545.648 683.613 556.357 C 669.036 556.618 654.611 557.002 640.037 556.501 C 626.716 556.442 613.396 556.292 600.078 556.05 L 600.107 472.054 C 600.179 464.601 601.058 432.705 598.974 427.655 C 601.467 423.964 598.687 356.451 600.629 344.68 z"/>
<path transform="translate(0,0)" fill="rgb(14,122,10)" d="M 641.727 472.375 C 655.302 471.614 670.581 471.827 684.322 471.764 C 684.314 477.602 684.639 501.019 684.012 505.573 C 683.498 517.919 685.284 545.648 683.613 556.357 C 669.036 556.618 654.611 557.002 640.037 556.501 C 639.281 536.131 639.962 496.131 640.329 473.949 C 640.87 473.34 641.336 472.815 641.727 472.375 z"/>
<path transform="translate(0,0)" fill="rgb(63,165,61)" d="M 556.078 472.152 L 600.107 472.054 L 600.078 556.05 C 557.691 556.592 514.439 556.177 471.995 556.181 L 471.971 512.032 L 556.013 512.02 C 555.967 498.731 555.989 485.441 556.078 472.152 z"/>
<path transform="translate(0,0)" fill="rgb(178,143,126)" d="M 428.247 600.007 L 684.147 600.084 L 684.082 684.04 C 656.827 683.349 626.131 684.012 598.532 684.015 L 428.104 684.055 C 427.88 657.099 427.332 626.74 428.247 600.007 z"/>
<path transform="translate(0,0)" fill="rgb(219,189,177)" d="M 383.822 599.94 L 428.247 600.007 C 427.332 626.74 427.88 657.099 428.104 684.055 L 383.969 684.057 L 383.822 599.94 z"/>
<path transform="translate(0,0)" fill="rgb(146,102,84)" d="M 684.147 600.084 C 698.739 600.005 713.331 600.001 727.923 600.074 C 727.955 627.814 727.681 656.234 728.154 683.917 C 714.222 683.971 697.8 684.472 684.082 684.04 L 684.147 600.084 z"/>
<path transform="translate(0,0)" fill="rgb(178,143,126)" d="M 344.037 599.974 L 383.822 599.94 L 383.969 684.057 L 344.053 683.981 L 344.037 599.974 z"/>
<path transform="translate(0,0)" fill="rgb(178,143,126)" d="M 384.08 728.023 L 728.068 728.065 C 727.821 755.166 728.871 785.662 728.027 812.062 L 727.978 940.277 C 643.122 939.19 557.177 940.267 472.201 940.049 L 427.87 940.041 L 384.08 940.041 L 383.997 767.947 L 384.08 728.023 z"/>
<path transform="translate(0,0)" fill="rgb(146,102,84)" d="M 384.08 728.023 L 728.068 728.065 C 727.821 755.166 728.871 785.662 728.027 812.062 L 684.034 812.076 C 683.99 797.418 684.022 782.76 684.131 768.103 C 614.082 767.253 542.242 768.006 472.066 768.06 L 428.04 768.019 L 383.997 767.947 L 384.08 728.023 z"/>
<path transform="translate(0,0)" fill="rgb(219,189,177)" d="M 383.997 767.947 L 428.04 768.019 L 472.066 768.06 L 472.201 940.049 L 427.87 940.041 L 384.08 940.041 L 383.997 767.947 z"/>
<path transform="translate(0,0)" fill="rgb(178,143,126)" d="M 383.997 767.947 L 428.04 768.019 C 428.048 825.111 428.549 883.029 427.87 940.041 L 384.08 940.041 L 383.997 767.947 z"/>
<path transform="translate(0,0)" fill="rgb(14,122,10)" d="M 683.313 88.1831 C 726.118 87.3727 769.425 88.2669 812.33 87.7712 C 812.221 101.193 812.249 114.615 812.415 128.036 C 839.67 128.016 869.108 128.457 896.175 127.725 C 896.099 142.097 895.874 157.358 896.634 171.703 C 911.183 171.554 925.732 171.485 940.282 171.494 C 940.1 186.267 940.267 201.042 940.783 215.806 C 954.983 215.831 970.047 216.098 984.174 215.725 L 984.144 298.737 C 984.153 312.457 983.638 330.869 984.427 344.285 C 972.32 343.793 952.529 343.539 940.475 344.427 C 940.399 355.884 939.784 373.35 940.53 384.323 C 927.532 383.71 908.784 383.563 895.944 384.772 L 895.954 344.555 C 871.349 343.027 838.886 343.832 813.787 343.858 C 787.057 343.885 754.74 343.079 728.331 344.361 C 728.231 356.578 727.716 372.416 728.412 384.312 C 699.403 383.163 668.247 385.157 640.304 383.987 C 627.287 383.77 614.325 384.165 601.311 384.47 C 601.314 377.358 601.821 349.779 600.629 344.68 C 589.492 343.43 566.819 343.788 555.622 344.599 C 555.871 318.49 555.254 292.305 555.651 266.182 C 555.702 262.85 555.434 259.234 555.176 255.895 C 569.699 256.284 585.46 255.999 600.032 255.989 C 599.473 243.762 600.036 228.912 599.785 216.17 C 599.91 202.122 600.411 185.378 599.672 171.572 C 611.158 171.845 629.726 171.103 640.094 172.062 C 640.044 160.016 640.571 139.445 639.65 127.867 C 651.587 128.087 671.53 128.496 683.068 127.156 C 683.368 117.701 684.348 96.9838 683.313 88.1831 z"/>
<path transform="translate(0,0)" fill="rgb(63,165,61)" d="M 727.984 215.967 C 741.339 216.11 754.695 216.093 768.049 215.916 L 767.967 256.026 L 896.05 255.899 C 896.029 270.007 895.616 286.166 896.085 300.107 C 877.92 299.47 856.428 299.995 838.045 299.996 L 727.991 300.016 C 728.033 314.655 727.961 329.295 727.777 343.934 L 600.08 343.979 C 599.992 329.435 599.99 314.889 600.074 300.345 C 599.763 285.819 600.191 270.635 600.032 255.989 C 599.473 243.762 600.036 228.912 599.785 216.17 C 606.62 215.597 619.363 215.949 626.85 215.932 L 684.186 216.061 L 727.984 215.967 z"/>
<path transform="translate(0,0)" fill="rgb(141,218,82)" d="M 599.785 216.17 C 606.62 215.597 619.363 215.949 626.85 215.932 L 684.186 216.061 L 684.041 299.996 C 656.571 299.988 627.4 299.531 600.074 300.345 C 599.763 285.819 600.191 270.635 600.032 255.989 C 599.473 243.762 600.036 228.912 599.785 216.17 z"/>
<path transform="translate(0,0)" fill="rgb(141,218,82)" d="M 683.988 128.063 C 711.872 128.019 740.242 127.708 768.088 128.028 L 768.075 171.959 L 896.08 171.948 L 896.082 215.979 L 940.116 216.051 L 940.031 300.101 C 925.756 299.784 910.439 300.083 896.085 300.107 C 895.616 286.166 896.029 270.007 896.05 255.899 L 767.967 256.026 L 768.049 215.916 C 754.695 216.093 741.339 216.11 727.984 215.967 L 728.009 171.882 L 684.05 172.061 L 683.988 128.063 z"/>
<path transform="translate(0,0)" fill="rgb(63,165,61)" d="M 896.085 300.107 C 910.439 300.083 925.756 299.784 940.031 300.101 L 939.959 343.936 L 896.081 344.015 C 895.907 329.471 896.066 314.673 896.085 300.107 z"/>
<path transform="translate(0,0)" fill="rgb(14,122,10)" d="M 171.168 255.887 C 190.443 256.621 213.969 256.025 233.674 256.022 C 270.509 256.12 307.344 256.015 344.178 255.708 C 343.797 268.049 344.771 280.933 343.944 293.275 L 343.718 300.01 C 344.685 312.675 344.113 330.777 344.094 343.913 C 357.433 344.036 370.772 344.051 384.111 343.958 L 384.086 429.957 C 384.09 437.695 384.544 465.918 383.427 472.504 L 384.039 473.42 C 384.243 485.583 383.853 500.03 384.541 511.884 C 396.025 512.12 416.115 511.286 426.279 512.293 C 426.433 512.51 427.866 514.523 427.866 514.523 C 427.679 526.216 429.577 545.19 427.558 556.295 C 416.285 556.431 394.538 557.159 384.099 555.882 C 384.084 541.829 384.329 526.57 383.637 512.643 C 373.815 511.364 354.441 511.989 344.327 512.337 C 344.116 526.808 344.134 541.281 344.382 555.751 L 343.847 557.375 C 328.888 554.996 273.193 555.973 256.222 556.628 C 256.2 570.786 255.905 585.959 256.266 600.035 C 255.678 619.876 256.453 639.964 256.34 659.8 C 256.306 665.634 256.883 679.249 256.336 684.516 C 243.641 684.255 228.479 683.807 215.978 685.081 C 215.813 670.017 215.937 654.951 216.352 639.892 C 202.495 639.895 185.146 639.489 171.635 640.606 C 171.537 627.292 171.586 613.978 171.782 600.665 C 159.552 599.447 140.137 599.805 127.914 600.529 L 128.04 556.964 C 114.708 555.865 101.309 555.859 87.976 556.947 C 87.9346 487.771 89.5911 412.491 87.716 343.889 C 100.815 344.303 114.731 343.875 128.122 344.173 C 127.607 329.471 128.307 314.561 127.691 299.517 C 140.85 300.4 157.881 299.538 171.944 300.013 C 171.268 285.325 172.311 270.284 171.168 255.887 z"/>
<path transform="translate(0,0)" fill="rgb(63,165,61)" d="M 344.094 343.913 C 357.433 344.036 370.772 344.051 384.111 343.958 L 384.086 429.957 C 384.09 437.695 384.544 465.918 383.427 472.504 C 379.181 471.52 350.338 471.953 344.061 471.984 L 343.799 511.919 L 256.018 512.003 C 256.099 526.686 256.012 541.37 255.756 556.051 L 215.999 556.031 L 216.03 599.988 L 172.074 599.961 L 172.044 555.863 L 128.075 556.209 L 128.074 428.154 C 142.275 427.772 157.648 428.009 171.945 427.952 L 172.017 384.023 C 199.248 384.581 228.572 384.006 255.978 383.992 L 256.014 344.077 L 344.094 343.913 z"/>
<path transform="translate(0,0)" fill="rgb(141,218,82)" d="M 215.997 300.087 C 258.083 299.419 301.511 299.965 343.718 300.01 C 344.685 312.675 344.113 330.777 344.094 343.913 L 256.014 344.077 L 255.978 383.992 C 228.572 384.006 199.248 384.581 172.017 384.023 C 171.828 370.688 171.85 357.351 172.081 344.016 L 216.028 343.865 L 215.997 300.087 z"/>
<path transform="translate(0,0)" fill="rgb(141,218,82)" d="M 128.028 384.062 C 142.691 383.927 157.354 383.915 172.017 384.023 L 171.945 427.952 C 157.648 428.009 142.275 427.772 128.074 428.154 C 127.79 413.672 128.012 398.591 128.028 384.062 z"/>
<path transform="translate(0,0)" fill="rgb(13,89,8)" d="M 384.111 343.958 L 428.062 344.002 C 429.37 353.211 425.897 375.686 428.717 382.498 C 439.5 384.225 461.05 381.441 469.575 383.683 C 456.136 384.131 441.061 383.661 428.093 384.4 L 428.381 428.008 C 441.333 427.803 459.551 427.089 472.154 427.651 C 471.921 454.949 471.388 484.914 471.971 512.032 L 471.995 556.181 C 457.183 556.14 442.37 556.178 427.558 556.295 C 429.577 545.19 427.679 526.216 427.866 514.523 C 427.866 514.523 426.433 512.51 426.279 512.293 L 426.882 511.96 C 428.382 509.773 428.055 477.674 428.162 472.045 C 421.208 471.972 388.601 470.887 384.039 473.42 L 383.427 472.504 C 384.544 465.918 384.09 437.695 384.086 429.957 L 384.111 343.958 z"/>
<path transform="translate(0,0)" fill="rgb(14,122,10)" d="M 383.688 255.884 C 398.571 255.998 413.454 255.967 428.336 255.79 C 428.193 270.088 428.046 285.342 428.792 299.63 L 472.16 299.517 L 472.171 382.599 L 470.981 383.777 L 469.575 383.683 C 461.05 381.441 439.5 384.225 428.717 382.498 C 425.897 375.686 429.37 353.211 428.062 344.002 L 384.111 343.958 C 370.772 344.051 357.433 344.036 344.094 343.913 C 344.113 330.777 344.685 312.675 343.718 300.01 L 343.944 293.275 C 344.405 295.575 344.254 297.35 346.059 298.624 C 349.678 301.177 379.669 299.605 382.774 298.739 C 383.389 296.774 383.766 295.561 384.149 293.543 C 383.449 281.145 384.574 267.791 383.688 255.884 z"/>
<path transform="translate(0,0)" fill="rgb(141,218,82)" d="M 384.149 293.543 L 384.343 299.971 L 428.064 300.048 C 428.048 312.807 427.394 331.776 428.062 344.002 L 384.111 343.958 C 370.772 344.051 357.433 344.036 344.094 343.913 C 344.113 330.777 344.685 312.675 343.718 300.01 L 343.944 293.275 C 344.405 295.575 344.254 297.35 346.059 298.624 C 349.678 301.177 379.669 299.605 382.774 298.739 C 383.389 296.774 383.766 295.561 384.149 293.543 z"/>
<path transform="translate(0,0)" fill="rgb(13,89,8)" d="M 384.149 293.543 L 384.343 299.971 C 383.468 313.176 383.828 330.557 384.111 343.958 C 370.772 344.051 357.433 344.036 344.094 343.913 C 344.113 330.777 344.685 312.675 343.718 300.01 L 343.944 293.275 C 344.405 295.575 344.254 297.35 346.059 298.624 C 349.678 301.177 379.669 299.605 382.774 298.739 C 383.389 296.774 383.766 295.561 384.149 293.543 z"/>
</svg>