<svg id="svg" version="1.1" viewBox="0 0 300 300" width="300" height="300" xmlns="http://www.w3.org/2000/svg"><svg xmlns="http://www.w3.org/2000/svg"><defs><clipPath id="clip-1"><rect x="0" y="0" transform="scale(0.14648,0.14648)" width="2048" height="2048" fill="none"/></clipPath></defs><g clip-path="url(#clip-1)" fill="none" fill-rule="nonzero" stroke="none" stroke-width="1" stroke-linecap="butt" stroke-linejoin="miter" stroke-miterlimit="10" stroke-dasharray="" stroke-dashoffset="0" font-family="none" font-weight="none" font-size="none" text-anchor="none" style="mix-blend-mode: normal"><path d="M145.28203,9.35685l9.44941,-0.02711c-0.09814,5.30076 0.04541,10.65205 -0.01318,15.95845c-0.02637,2.46445 -0.02637,5.03657 0.08643,7.49341c4.57178,0.08159 9.39844,-0.00571 13.99072,-0.01436c-0.15527,6.2562 0.0835,12.63223 -0.01465,18.90146c-0.04687,2.99751 -0.05713,6.25225 0.09229,9.23687c3.01904,0.05449 6.26221,-0.00542 9.2959,-0.01348c-0.15381,6.2562 0.08496,12.63223 -0.01318,18.90161c-0.04687,2.99883 -0.05566,6.25078 0.09229,9.23701c4.61426,0.05962 9.35889,-0.00498 13.98486,-0.01362c-0.10986,5.84854 0.0542,11.74878 -0.01318,17.60244c-0.02197,1.93125 -0.00586,3.923 0.09082,5.84868l18.67236,-0.01348c-0.01611,4.45063 -0.13916,9.67573 0.07764,14.07612l37.42236,-0.01362c-0.01758,4.48096 -0.1333,9.64409 0.07178,14.07642c7.69043,0.10898 15.65332,-0.00044 23.36572,-0.01406c-0.09814,3.95669 -0.14355,10.37842 0.05566,14.25146c-1.70215,-0.16113 -3.66211,-0.1333 -5.38477,-0.1084c-5.99268,0.08496 -12.08496,-0.15381 -18.06445,0.06885c-0.11133,3.88623 -0.1875,10.25098 0.01172,14.10205c-1.77539,-0.16699 -4.04883,-0.1084 -5.87256,-0.1084h-9.08496c-7.20703,-0.00146 -15.46436,-0.20215 -22.55273,0.06738c-0.10547,3.96826 -0.18311,10.16895 0.00879,14.10352c-2.45068,-0.19629 -5.72021,-0.11133 -8.22949,-0.11133c-3.43213,0.00146 -7.11328,-0.05566 -10.5293,0.07031c-0.20508,5.16211 0.01172,10.45313 -0.06006,15.63135c-0.03516,2.55469 -0.0542,5.2998 0.06885,7.84717c-1.69189,-0.17139 -4.29785,-0.11572 -6.03516,-0.11279c-2.6792,-0.02197 -5.35693,0.00293 -8.03613,0.07178c-0.27246,7.02539 0.07617,14.24414 -0.05859,21.28857c-0.04248,2.23828 -0.03955,4.65381 0.06738,6.87744c-2.24561,-0.21826 -7.06641,-0.12598 -9.38379,-0.04102c-0.26807,7.01221 0.07031,14.20752 -0.05859,21.2417c-0.04102,2.25586 -0.04687,4.68018 0.06885,6.92432c-0.82178,-0.08057 -1.66113,-0.10547 -2.4873,-0.10107c-3.84814,0.01611 -7.7417,-0.08496 -11.58545,0.06299c-0.12891,3.63428 -0.06152,7.53662 -0.06006,11.19434c0.00293,3.94189 -0.06152,8.03467 0.03809,11.95605c-0.01465,0.1084 -0.08789,0.2168 -0.14502,0.32666c-2.28369,-0.22119 -6.96826,-0.15527 -9.32285,-0.03076l0.00015,-23.41113c-1.78301,-0.17725 -4.46353,-0.11865 -6.28887,-0.11279c-2.53433,0.00732 -5.26992,-0.0498 -7.77393,0.08496l-0.00308,-28.08691c-1.97549,-0.2168 -7.31353,-0.15234 -9.37178,-0.03955l-0.00337,-28.08545c-1.72778,-0.18604 -4.47056,-0.12891 -6.23569,-0.12305c-2.54941,0.00732 -5.30552,-0.05273 -7.82358,0.08643l-0.00381,-23.40088c-2.35151,-0.22559 -6.09478,-0.13623 -8.56055,-0.12305c-3.20713,0.01611 -7.02568,-0.09229 -10.18564,0.08643l-0.00322,-14.02588c-1.73496,-0.18457 -4.31396,-0.12012 -6.10796,-0.11865l-9.73711,0.00293h-13.38955c-2.66836,0 -5.62075,-0.06592 -8.26216,0.07764l0.00029,-14.03467c-2.61709,-0.24609 -7.71519,-0.13477 -10.44932,-0.10693c-4.07695,0.04102 -8.98872,-0.14502 -12.98848,0.08057l-0.00366,-14.19463c7.42822,-0.02256 16.14976,0.23291 23.42827,-0.07529l0.00923,-13.98721l24.60322,-0.0104c3.78149,0 9.21313,0.15322 12.86631,-0.08569c0.18105,-4.14214 0.04277,-9.75937 0.03047,-13.96626l10.86006,-0.00923c2.4873,0.00103 5.40498,0.07529 7.85991,-0.08701c0.11118,-2.62354 0.03413,-5.73179 0.03472,-8.41157l-0.00513,-14.92983c4.23955,-0.00996 9.96797,0.17432 14.03247,-0.09609c0.13052,-3.03354 0.03442,-6.79263 0.03486,-9.87466l-0.00439,-18.15366c2.92734,-0.00015 6.46802,0.08906 9.34453,-0.09653c0.13022,-3.02358 0.03442,-6.77109 0.03486,-9.84287l-0.00439,-18.18618c4.39438,0.03003 9.71704,0.10796 14.05313,-0.07529c0.10298,-7.66597 0.04175,-15.68657 0.00674,-23.36249z" fill="#4c2c1e"/><path d="M145.30796,32.80928c3.08657,-0.00176 6.31655,-0.04731 9.39126,0.00645c0,9.32593 0.09082,18.80332 -0.01318,28.11621l14.08008,0.00322l0.00146,28.12485h9.37354l0.00146,23.42944l14.06104,0.00806l0.00146,14.05444l18.74854,0.0082l-0.00293,14.05825c-1.81934,0.09668 -4.56006,0.01714 -6.4292,0.01729h-12.33545l-0.01904,-14.05474l-14.04492,-0.00806l0.00586,28.1644l-0.00586,14.0127c-6.7002,-0.12891 -13.83545,-0.00732 -20.56494,-0.00732l-35.6811,0.02197c-4.34194,-0.16846 -9.61934,-0.02197 -14.0335,-0.01758c-0.05508,-4.67578 -0.02095,-9.39697 -0.01934,-14.07568l-18.77124,0.01758l-37.49355,0.00293l-0.00059,-14.06997l37.46382,0.01406c0.1251,-4.53545 0.01274,-9.49116 0.03149,-14.07744l18.73564,-0.00864l0.01436,-14.05371l14.04814,-0.0085c0.08965,-7.75752 -0.02007,-15.65361 0.01436,-23.42915l9.36372,-0.00425l0.01128,-28.1209l14.07905,-0.00967c-0.03853,-9.15088 -0.18164,-18.9876 -0.01172,-28.11445z" fill="#fedd81"/><path d="M121.87617,126.56733l32.76299,0.00132l23.48291,0.00425l0.00586,28.1644l-0.00586,14.0127c-6.7002,-0.12891 -13.83545,-0.00732 -20.56494,-0.00732l-35.6811,0.02197z" fill="#fefabd"/><path d="M154.63916,126.56865l23.48291,0.00425l0.00586,28.1644c-2.50781,-0.14355 -5.87549,-0.0498 -8.43164,-0.0498l-15.01025,0.02197c0.00586,-8.95679 0.26514,-19.32656 -0.04687,-28.14082z" fill="#fefffe"/><path d="M145.31968,60.92373c-0.0041,17.10791 -0.17021,34.51436 0.02314,51.59766c-7.73203,-0.03193 -15.74414,-0.11279 -23.45786,-0.00469l0.00234,14.06396l-14.06484,-0.00146c-0.00103,4.64648 -0.06094,9.43213 0.02036,14.06733l-12.50171,-0.01069c-1.94692,0.00234 -4.40757,0.0772 -6.31948,0.00015c0.1251,-4.53545 0.01274,-9.49116 0.03149,-14.07744l18.73564,-0.00864l0.01436,-14.05371l14.04814,-0.0085c0.08965,-7.75752 -0.02007,-15.65361 0.01436,-23.42915l9.36372,-0.00425l0.01128,-28.1209z" fill="#fec20e"/><path d="M154.68604,60.93193l14.08008,0.00322l0.00146,28.12485h9.37354l0.00146,23.42944l14.06104,0.00806l0.00146,14.05444l18.74854,0.0082l-0.00293,14.05825c-1.81934,0.09668 -4.56006,0.01714 -6.4292,0.01729h-12.33545l-0.01904,-14.05474l-14.04492,-0.00806l-0.01758,-14.05415l-23.41699,-0.0082z" fill="#fec20e"/><path d="M192.17578,154.68164l18.77783,0.00293l-0.00146,14.07715l-18.75439,0.00732l0.00439,14.05518l-14.06689,0.00879l0.00439,23.42871l-9.38379,0.01025l0.00732,28.11475c-4.6582,0.00146 -9.43066,-0.05127 -14.08008,0.01318c0.11719,9.29736 0.01904,18.80127 0.01025,28.11035l-9.38511,-0.00586c-0.10488,-9.28564 -0.0167,-18.82178 0.00469,-28.11621l-14.07261,-0.00586c-0.12891,-9.26953 -0.01978,-18.82471 0.00381,-28.12061l-9.37881,-0.00439l-0.0022,-23.42725l-14.0603,-0.01025c-0.06812,-4.63184 -0.00513,-9.40869 -0.0022,-14.05225l-18.7478,-0.01025c-0.06812,-4.63623 -0.00425,-9.42041 -0.00088,-14.06836l18.77124,-0.01758c-0.00161,4.67871 -0.03574,9.3999 0.01934,14.07568c4.41416,-0.00439 9.69155,-0.15088 14.0335,0.01758l35.6811,-0.02197c6.72949,0 13.86475,-0.12158 20.56494,0.00732l14.05078,-0.00439z" fill="#fedd81"/><path d="M192.17578,154.68164l18.77783,0.00293l-0.00146,14.07715l-18.75439,0.00732l0.00439,14.05518l-14.06689,0.00879l0.00439,23.42871l-9.38379,0.01025l0.00732,28.11475c-4.6582,0.00146 -9.43066,-0.05127 -14.08008,0.01318l-0.00732,-51.59326l23.43457,0.00146l0.01172,-14.05811l14.05078,-0.00439z" fill="#fec20e"/><path d="M89.05195,154.68896l18.77124,-0.01758c-0.00161,4.67871 -0.03574,9.3999 0.01934,14.07568c4.41416,-0.00439 9.69155,-0.15088 14.0335,0.01758c0.00439,4.6626 -0.03018,9.38672 0.029,14.04492l23.41802,-0.01318l-0.00688,34.8457l0.00513,11.04053c0.0022,1.64941 0.0876,4.10742 -0.00835,5.70557l-14.07261,-0.00586c-0.12891,-9.26953 -0.01978,-18.82471 0.00381,-28.12061l-9.37881,-0.00439l-0.0022,-23.42725l-14.0603,-0.01025c-0.06812,-4.63184 -0.00513,-9.40869 -0.0022,-14.05225l-18.7478,-0.01025c-0.06812,-4.63623 -0.00425,-9.42041 -0.00088,-14.06836z" fill="#fec20e"/><path d="M178.12207,126.5729l14.04492,0.00806l0.01904,14.05474h12.33545c1.86914,-0.00015 4.60986,0.07939 6.4292,-0.01729c12.32813,-0.00146 25.21436,-0.1897 37.49707,0.00981l-0.00439,14.06953c-12.2666,-0.00146 -25.2832,0.2168 -37.48975,-0.01318l-18.77783,-0.00293l-0.00293,14.06396l-14.05078,0.00439l0.00586,-14.0127z" fill="#fedd81"/></g></svg></svg>